<?xml version="1.0" standalone="no"?>
<!DOCTYPE svg PUBLIC "-//W3C//DTD SVG 20010904//EN"
 "http://www.w3.org/TR/2001/REC-SVG-20010904/DTD/svg10.dtd">
<svg version="1.0" xmlns="http://www.w3.org/2000/svg"
 width="512.000000pt" height="512.000000pt" viewBox="0 0 512.000000 512.000000"
 preserveAspectRatio="xMidYMid meet">

<g transform="translate(0.000000,512.000000) scale(0.100000,-0.100000)"
fill="#000000" stroke="none">
<path d="M2546 4950 c-63 -16 -153 -70 -197 -117 -22 -24 -55 -74 -72 -111
-29 -61 -32 -76 -32 -163 0 -90 2 -99 37 -171 45 -91 103 -147 196 -191 61
-29 76 -32 162 -32 86 0 101 3 162 32 93 44 151 100 196 191 35 72 37 81 37
172 0 91 -2 100 -37 172 -68 136 -188 217 -336 224 -42 2 -94 -1 -116 -6z"/>
<path d="M2297 4066 c-89 -33 -163 -109 -186 -191 -4 -16 -61 -285 -126 -597
-117 -560 -118 -567 -106 -624 11 -48 22 -66 65 -109 63 -63 80 -68 341 -96
110 -12 208 -25 218 -30 49 -27 49 -18 17 -549 -17 -272 -30 -513 -30 -534 l0
-40 -34 33 c-44 42 -81 112 -101 186 -19 73 -19 125 -1 193 l13 52 -612 0
-611 0 -46 -82 c-188 -338 -259 -612 -205 -788 35 -115 136 -202 261 -225 l59
-11 14 -64 c36 -181 177 -330 362 -384 70 -21 202 -21 272 0 164 49 295 173
348 332 12 34 21 75 21 92 l0 30 693 0 c594 0 696 2 721 15 33 18 36 18 36 5
0 -22 44 -124 61 -141 31 -31 85 -25 119 13 21 23 30 28 34 17 2 -8 10 -32 17
-54 22 -74 61 -139 121 -201 101 -105 219 -154 372 -154 198 1 359 102 450
282 52 102 68 243 40 346 -5 16 -2 22 9 22 9 0 25 12 37 28 19 23 21 35 16 82
-34 303 -291 547 -596 567 l-87 6 8 36 c15 63 10 166 -11 233 -31 100 -87 177
-183 253 -46 36 -103 92 -127 123 -100 135 -170 328 -195 535 l-6 57 103 0
c87 0 111 4 153 24 60 28 87 56 114 116 17 38 21 66 21 178 0 147 -7 175 -61
237 -64 72 -76 75 -414 75 l-300 0 -120 41 c-230 77 -411 177 -516 286 -54 55
-57 61 -62 120 -9 106 -69 198 -160 245 -53 27 -166 34 -220 14z m312 -835
c157 -123 388 -216 634 -256 l37 -6 0 -874 0 -875 -158 0 -158 0 68 633 c37
347 67 654 68 681 0 97 -44 177 -120 216 -20 10 -122 51 -226 90 -104 38 -199
75 -211 81 -42 22 -43 54 -10 202 17 75 33 137 35 137 2 0 21 -13 41 -29z
m2066 -2371 c71 -27 96 -219 43 -332 -34 -72 -103 -142 -176 -176 -49 -23 -70
-27 -147 -27 -77 1 -98 5 -147 28 -111 54 -190 167 -203 292 -6 53 -4 63 15
83 40 43 174 100 295 127 71 16 283 19 320 5z m-2608 -236 c-15 -92 -98 -198
-192 -244 -43 -21 -64 -25 -150 -25 -91 0 -105 3 -158 29 -92 47 -164 137
-186 235 l-9 41 350 0 351 0 -6 -36z"/>
<path d="M240 3827 c-49 -16 -133 -102 -148 -153 -17 -59 -17 -969 0 -1028 16
-55 99 -138 154 -154 30 -9 198 -12 636 -12 680 0 657 -2 731 80 24 26 49 66
55 88 17 56 17 968 0 1024 -6 22 -31 62 -55 88 -74 83 -50 80 -737 79 -408 -1
-612 -5 -636 -12z"/>
<path d="M983 2304 c-24 -24 -25 -31 -20 -87 9 -92 33 -159 81 -229 l42 -63
657 -3 657 -2 0 170 c0 178 -8 219 -45 234 -9 3 -316 6 -681 6 l-665 0 -26
-26z"/>
</g>
</svg>
